HIERARCHY
ROOT Hips
{
	OFFSET 0.00000 0.00000 0.00000
	CHANNELS 6 Xposition Yposition Zposition Zrotation Yrotation Xrotation 
	JOINT LHipJoint
	{
		OFFSET 0 0 0
		CHANNELS 3 Zrotation Yrotation Xrotation
		JOINT LeftHip
		{
			OFFSET 1.34019 -1.87553 0.90315
			CHANNELS 3 Zrotation Yrotation Xrotation
			JOINT LeftKnee
			{
				OFFSET 2.55316 -7.01474 0.00000
				CHANNELS 3 Zrotation Yrotation Xrotation
				JOINT LeftAnkle
				{
					OFFSET 2.64657 -7.27139 0.00000
					CHANNELS 3 Zrotation Yrotation Xrotation
					JOINT LeftToe
					{
						OFFSET 0.24207 -0.66507 2.14489
						CHANNELS 3 Zrotation Yrotation Xrotation
						End Site
						{
							OFFSET 0.00000 -0.00000 1.12451
						}
					}
				}
			}
		}
	}
	JOINT RHipJoint
	{
		OFFSET 0 0 0
		CHANNELS 3 Zrotation Yrotation Xrotation
		JOINT RightHip
		{
			OFFSET -1.28320 -1.87553 0.90315
			CHANNELS 3 Zrotation Yrotation Xrotation
			JOINT RightKnee
			{
				OFFSET -2.60484 -7.15674 0.00000
				CHANNELS 3 Zrotation Yrotation Xrotation
				JOINT RightAnkle
				{
					OFFSET -2.60296 -7.15159 0.00000
					CHANNELS 3 Zrotation Yrotation Xrotation
					JOINT RightToe
					{
						OFFSET -0.31082 -0.85398 2.28998
						CHANNELS 3 Zrotation Yrotation Xrotation
						End Site
						{
							OFFSET -0.00000 -0.00000 1.21611
						}
					}
				}
			}
		}
	}
	JOINT lowerback
	{
		OFFSET 0 0 0
		CHANNELS 3 Zrotation Yrotation Xrotation
		JOINT Chest
		{
			OFFSET -0.00160 2.05581 -0.15156
			CHANNELS 3 Zrotation Yrotation Xrotation
			JOINT Chest2
			{
				OFFSET 0.04594 2.06326 -0.01617
				CHANNELS 3 Zrotation Yrotation Xrotation
				JOINT lowerneck
				{
					OFFSET 0 0 0
					CHANNELS 3 Zrotation Yrotation Xrotation
					JOINT Neck
					{
						OFFSET 0.03753 1.73883 0.26751
						CHANNELS 3 Zrotation Yrotation Xrotation
						JOINT Head
						{
							OFFSET -0.09795 1.76129 -0.31794
							CHANNELS 3 Zrotation Yrotation Xrotation
							End Site
							{
								OFFSET -0.03611 1.79987 -0.13846
							}
						}
					}
				}
				JOINT LeftCollar
				{
					OFFSET 0 0 0
					CHANNELS 3 Zrotation Yrotation Xrotation
					JOINT LeftShoulder
					{
						OFFSET 3.30667 1.29205 -0.22445
CHANNELS 3 Zrotation Xrotation Yrotation
						JOINT LeftElbow
						{
OFFSET 0 -4.927850 -0.000000
CHANNELS 3 Zrotation Xrotation Yrotation
							JOINT LeftWrist
							{
OFFSET 0 -3.440520 0.000000
CHANNELS 3 Zrotation Xrotation Yrotation
								JOINT lhand
								{
									OFFSET 0 0 0
CHANNELS 3 Zrotation Xrotation Yrotation
									JOINT LFingers
									{
OFFSET 0 -0.654330 0.000000
CHANNELS 3 Zrotation Xrotation Yrotation
										End Site
										{
OFFSET 0 -0.527530 0.000000
										}
									}
								}
								JOINT LThumb
								{
OFFSET 0 0.000000 0.000000
CHANNELS 3 Zrotation Xrotation Yrotation
									End Site
									{
OFFSET 0 -0.535590 0.535590
									}
								}
							}
						}
					}
				}
				JOINT RightCollar
				{
					OFFSET 0 0 0
					CHANNELS 3 Zrotation Yrotation Xrotation
					JOINT RightShoulder
					{
						OFFSET -3.20032 1.49783 -0.27688
CHANNELS 3 Zrotation Xrotation Yrotation
						JOINT RightElbow
						{
OFFSET 0 -5.091810 -0.000000
CHANNELS 3 Zrotation Xrotation Yrotation
							JOINT RightWrist
							{
OFFSET 0 -3.498650 -0.000000
CHANNELS 3 Zrotation Xrotation Yrotation
								JOINT rhand
								{
									OFFSET 0 0 0
CHANNELS 3 Zrotation Xrotation Yrotation
									JOINT RFingers
									{
OFFSET 0 -0.666410 0.000000
CHANNELS 3 Zrotation Xrotation Yrotation
										End Site
										{
OFFSET 0 -0.537280 0.000000
										}
									}
								}
								JOINT RThumb
								{
OFFSET 0 0.000000 0.000000
CHANNELS 3 Zrotation Xrotation Yrotation
									End Site
									{
OFFSET 0 -0.545480 0.545480
									}
								}
							}
						}
					}
				}
			}
		}
	}
}
MOTION
Frames: 12
Frame Time: 0.008333333333333333
0.297252 18.872061 -30.295443 361.078581 -180.208052 -356.972866 0.000000 0.000000 0.000000 -13.393832 -3.575634 -8.826795 2.322103 9.506960 27.394448 -0.016453 9.020486 6.012369 2.534140 -9.899777 -28.652707 0.000000 0.000000 0.000000 22.907142 -0.228862 -10.952224 -2.785296 -10.339154 30.082048 0.560236 -13.666398 -0.968815 -1.388147 7.454350 -21.068728 0.264882 0.639408 2.722956 1.289293 0.904638 -0.369108 1.134003 0.463682 -1.921453 3.846613 0.976243 -21.188095 -3.616873 -0.010032 29.235933 -2.192458 -0.522436 13.403471 0.000000 0.000000 0.000000 2.568042 7.948740 -18.421305 12.644246 -20.763679 2.325628 11.377041 -3.449860 2.375112 0.000000 0.000000 0.000000 -7.125000 0.000000 0.000000 -11.644408 27.496632 -5.049933 0.000000 0.000000 0.000000 -2.265083 4.214508 17.974157 -14.800395 -23.867248 -3.144697 -17.183944 -0.892378 3.275209 0.000000 0.000000 0.000000 7.125000 0.000000 0.000000 7.680717 33.336439 2.212938
0.550801 18.788358 -30.085140 361.335167 -179.108068 -357.462821 0.000000 0.000000 0.000000 -11.756337 -4.665218 -10.112269 2.689466 10.174555 29.543778 0.033059 6.961181 5.633274 2.484296 -9.809229 -28.361262 0.000000 0.000000 0.000000 23.284396 -2.100055 -10.912384 -2.660222 -10.123580 29.377917 0.277659 -9.443845 -1.662205 -1.432379 7.567328 -21.407483 1.036936 1.251826 3.119606 1.325947 1.695222 0.243177 0.704143 0.830261 -1.508554 3.307757 0.195886 -21.306465 -3.577511 -0.859725 28.673797 -2.206236 -0.911234 13.151804 0.000000 0.000000 0.000000 1.662795 9.070918 -17.243051 11.841813 -19.567021 2.049028 10.515403 -1.975205 2.406752 0.000000 0.000000 0.000000 -7.125000 0.000000 0.000000 -12.293402 27.464255 -5.353002 0.000000 0.000000 0.000000 -3.234410 3.319819 20.295147 -15.513202 -24.856215 -3.438803 -17.172011 -1.423053 4.323630 0.000000 0.000000 0.000000 7.125000 0.000000 0.000000 7.807241 34.422519 2.042669
0.652454 18.660758 -29.859795 362.001758 -178.300129 -358.417571 0.000000 0.000000 0.000000 -10.275579 -5.049254 -11.822765 3.333964 11.216976 33.015094 0.017443 4.794250 3.935781 1.894009 -8.641676 -24.680683 0.000000 0.000000 0.000000 21.834592 -3.053884 -8.803428 -2.263114 -9.393771 27.035072 0.004641 1.359447 -0.213917 -1.609298 7.999956 -22.713946 2.959301 1.478092 2.825279 1.498024 2.020123 0.537819 -0.193613 0.978220 -0.981746 2.840030 -0.281196 -19.894161 -3.635833 -1.427320 28.609664 -2.226867 -1.252898 12.808367 0.000000 0.000000 0.000000 0.962077 9.630536 -14.925329 11.147524 -18.513920 1.822465 9.796467 0.493990 2.431733 0.000000 0.000000 0.000000 -7.125000 0.000000 0.000000 -12.833824 27.437923 -5.607674 0.000000 0.000000 0.000000 -4.561955 2.375961 21.136964 -15.933655 -25.430600 -3.617427 -16.929025 -1.916558 4.796695 0.000000 0.000000 0.000000 7.125000 0.000000 0.000000 8.063099 34.901586 2.015985
0.571176 18.596913 -29.660876 361.641362 -179.422960 -360.367813 0.000000 0.000000 0.000000 -11.375627 -3.538959 -10.918512 3.475930 11.428345 33.738340 -0.017424 4.854703 2.759406 1.624489 -8.035618 -22.822434 0.000000 0.000000 0.000000 20.560095 -3.058933 -8.273244 -2.538109 -9.906819 28.675490 0.042681 3.750671 0.503651 -1.758329 8.343409 -23.762224 2.823692 1.270557 2.767350 1.719567 1.681694 1.376895 0.133685 0.810609 -0.107410 3.606423 0.379908 -20.647263 -4.043776 -0.678434 29.343926 -2.434065 -0.914494 13.298443 0.000000 0.000000 0.000000 0.427226 8.501289 -15.085150 10.904408 -18.141595 1.746072 9.029710 1.067533 2.288686 0.000000 0.000000 0.000000 -7.125000 0.000000 0.000000 -13.428581 27.576433 -5.835912 0.000000 0.000000 0.000000 -5.807139 1.267427 21.299188 -17.585548 -27.623200 -4.355381 -17.208676 -3.829015 4.748206 0.000000 0.000000 0.000000 7.125000 0.000000 0.000000 7.827468 34.863938 1.963332
0.301778 18.567533 -29.410731 361.704833 -180.201092 -361.771032 0.000000 0.000000 0.000000 -12.737948 -2.849241 -10.139464 3.453810 11.395863 33.626739 -0.068120 5.921950 1.783908 1.633059 -8.055817 -22.883773 0.000000 0.000000 0.000000 19.805470 -2.372175 -8.197038 -2.775292 -10.322021 30.026082 0.029810 3.080171 0.750363 -1.779520 8.390916 -23.907936 2.358451 0.174834 2.354496 1.828984 0.372988 1.727278 0.545063 0.240694 0.451742 4.954852 1.339219 -21.249032 -4.276451 0.299362 29.421564 -2.600435 -0.364782 13.515744 0.000000 0.000000 0.000000 1.141987 6.688182 -13.896267 10.842443 -18.046378 1.726832 9.941534 1.826667 2.316523 0.000000 0.000000 0.000000 -7.125000 0.000000 0.000000 -12.737055 27.552460 -5.528079 0.000000 0.000000 0.000000 -6.234086 3.398422 19.894891 -19.142136 -29.594853 -5.100861 -17.571164 -5.468913 4.251650 0.000000 0.000000 0.000000 7.125000 0.000000 0.000000 7.472558 34.364240 1.964435
-0.120673 18.623442 -28.899725 362.311229 -182.323818 -360.668192 0.000000 0.000000 0.000000 -14.179757 -3.806258 -12.478358 3.330943 11.212359 32.999403 -0.159212 10.101720 4.023114 1.864981 -8.578999 -24.487064 0.000000 0.000000 0.000000 19.614756 -0.960840 -10.994182 -2.872309 -10.485443 30.563675 -0.014586 0.461963 -2.130870 -1.480850 7.688816 -21.772729 2.147114 0.855202 3.157649 1.581434 1.286705 0.748890 0.366177 0.664197 -0.991808 5.378822 1.161442 -22.416752 -3.024009 -0.472056 29.153623 -2.302183 -0.429355 13.611903 0.000000 0.000000 0.000000 2.272979 6.906810 -16.523540 11.186462 -18.573452 1.834845 9.916375 1.538007 1.762084 0.000000 0.000000 0.000000 -7.125000 0.000000 0.000000 -12.819234 28.101265 -5.394706 0.000000 0.000000 0.000000 -6.043885 6.706557 13.306610 -17.371998 -27.345566 -4.256842 -17.730035 -5.747288 5.141370 0.000000 0.000000 0.000000 7.125000 0.000000 0.000000 7.445419 35.296002 1.787293
-0.324878 18.594857 -28.216752 362.334346 -182.599504 -360.271786 0.000000 0.000000 0.000000 -15.423639 -3.113266 -14.374799 2.955792 10.623138 31.019132 -0.309584 12.782056 4.077348 1.512430 -7.766724 -22.007699 0.000000 0.000000 0.000000 20.488193 -4.953695 -8.152589 -5.603884 -14.032429 43.369062 -0.081076 -9.629007 -15.010045 -0.449531 4.300148 -11.922863 1.711673 1.945978 2.828013 0.651144 2.673856 0.296644 -0.392761 1.336107 -1.232740 5.070804 0.547730 -23.119487 -2.540793 -1.455716 29.636711 -2.254553 -0.811211 13.921280 0.000000 0.000000 0.000000 3.500040 9.386561 -10.830530 9.871262 -16.537904 1.438098 8.477375 8.337938 0.775957 0.000000 0.000000 0.000000 -7.125000 0.000000 0.000000 -14.038736 29.057932 -5.607279 0.000000 0.000000 0.000000 -4.935240 6.867805 13.583037 -16.483134 -26.171343 -3.856635 -17.127231 -5.490599 4.955894 0.000000 0.000000 0.000000 7.125000 0.000000 0.000000 7.919805 35.075345 1.945815
-0.281606 18.492946 -27.235707 364.861992 -182.477040 -359.688676 0.000000 0.000000 0.000000 -11.272649 -6.144675 -20.195738 3.682300 11.725004 34.766251 -0.086511 11.080121 6.388499 1.534909 -7.821383 -22.172904 0.000000 0.000000 0.000000 24.174562 -7.499100 7.393446 -3.243396 -11.071962 32.531015 1.052800 -18.166397 -2.999456 -0.165435 2.619384 -7.220940 4.913085 3.251075 0.942418 0.957671 4.437665 -0.185244 -1.804938 2.221363 -0.422099 4.187697 -0.277208 -22.928630 -2.528205 -2.399673 30.353786 -2.296380 -1.337269 14.152583 0.000000 0.000000 0.000000 2.441771 14.543177 -3.428251 9.014354 -15.183282 1.203914 6.987630 11.254813 0.193290 0.000000 0.000000 0.000000 -7.125000 0.000000 0.000000 -15.259768 29.601272 -5.921440 0.000000 0.000000 0.000000 -4.825979 4.097741 17.357784 -18.437624 -28.713641 -4.757735 -17.420292 -6.270365 4.650757 0.000000 0.000000 0.000000 7.125000 0.000000 0.000000 7.642139 34.772229 1.933346
-0.079225 18.247846 -25.417980 366.046651 -185.996751 -356.914496 0.000000 0.000000 0.000000 -6.660279 -9.306875 -27.820874 3.571284 11.566684 34.216158 -0.043482 14.278209 9.504171 1.286463 -7.187205 -20.271157 0.000000 0.000000 0.000000 26.765645 -3.083350 12.046562 -0.741587 -5.501148 15.343633 1.037567 -17.704656 -5.720117 -0.782934 5.648849 -15.769071 8.875256 4.343151 3.589240 0.594923 6.301498 -1.233557 -4.631563 3.026359 -2.417929 3.598649 -0.167082 -23.670107 -2.644530 -1.910012 30.268819 -2.156383 -1.183373 14.298236 0.000000 0.000000 0.000000 0.353691 15.714672 3.294767 8.762734 -14.781446 1.138874 4.410857 10.632443 -2.684011 0.000000 0.000000 0.000000 -7.125000 0.000000 0.000000 -17.742995 32.297859 -5.759333 0.000000 0.000000 0.000000 -4.786481 -1.411491 21.323476 -21.992838 -32.968773 -6.582013 -17.856451 -6.503948 4.173336 0.000000 0.000000 0.000000 7.125000 0.000000 0.000000 7.230512 34.294357 1.912318
0.303774 18.474823 -23.597460 364.672962 -182.599297 -357.264942 0.000000 0.000000 0.000000 -6.076193 -8.877980 -28.835384 2.299954 9.464735 27.260310 0.158883 10.270516 9.515253 1.453716 -7.620952 -21.568658 0.000000 0.000000 0.000000 27.671024 -3.348205 4.427938 -0.979419 -6.299163 17.655240 1.019413 -17.534958 -6.852776 -0.826945 5.801653 -16.210065 7.271821 2.192005 5.367602 1.105325 3.492247 -0.090488 -3.183909 1.678548 -2.746623 4.122842 0.611990 -23.432048 -3.480068 -0.527594 28.885819 -2.271370 -0.610588 13.700698 0.000000 0.000000 0.000000 0.058990 10.783653 -4.995861 10.942907 -18.200458 1.758250 8.272157 3.202401 0.912960 0.000000 0.000000 0.000000 -7.125000 0.000000 0.000000 -14.176809 28.920695 -5.713290 0.000000 0.000000 0.000000 -5.598496 -2.177124 24.130651 -23.026197 -34.117398 -7.152993 -18.262967 -8.030509 4.128434 0.000000 0.000000 0.000000 7.125000 0.000000 0.000000 6.893229 34.263786 1.827127
0.382421 18.670575 -22.229174 362.830387 -182.276923 -357.438120 0.000000 0.000000 0.000000 -7.258886 -8.868315 -22.313243 3.929043 12.064535 35.961826 -0.270575 9.177096 -3.159239 0.695021 -5.329258 -14.850101 0.000000 0.000000 0.000000 26.202717 -0.544074 -4.836604 -2.169427 -9.209859 26.454412 1.073111 -17.971090 -6.489391 -0.817372 5.768828 -16.115069 6.335957 0.871648 6.096976 1.051152 1.732530 -0.471176 -2.624244 0.769235 -3.763764 4.642460 1.506691 -22.122041 -3.837435 0.631814 28.875602 -2.291616 -0.140749 13.485380 0.000000 0.000000 0.000000 2.480146 5.769192 -13.254661 15.477963 -24.807395 3.424158 12.096180 -7.241851 -0.013171 0.000000 0.000000 0.000000 -7.125000 0.000000 0.000000 -11.351136 29.892352 -4.259334 0.000000 0.000000 0.000000 -6.089086 4.162462 22.700362 -18.531339 -28.831311 -4.803121 -17.147733 -5.261913 4.061703 0.000000 0.000000 0.000000 7.125000 0.000000 0.000000 7.796854 34.150232 2.091838
0.289067 18.665003 -20.978360 360.101406 -183.315589 -356.720917 0.000000 0.000000 0.000000 -13.248360 -4.953311 -12.601799 6.816290 15.175245 48.176087 -0.146289 7.245716 0.112035 0.937744 -6.168064 -17.272887 0.000000 0.000000 0.000000 23.429349 3.090100 -13.857774 -3.468704 -11.417698 33.701825 1.413020 -20.529302 -6.235855 -0.555170 4.772858 -13.261884 2.366639 -1.430148 5.857505 1.639000 -1.623684 -0.808977 0.517222 -0.822527 -4.142090 7.384908 2.878206 -21.840410 -6.738132 4.670224 28.349379 -2.999283 2.286161 13.571674 0.000000 0.000000 0.000000 5.182286 0.301832 -18.020505 18.773151 -29.135795 4.919921 12.053775 -11.579976 0.155591 0.000000 0.000000 0.000000 -7.125000 0.000000 0.000000 -11.364574 29.722598 -4.311584 0.000000 0.000000 0.000000 -8.110533 8.801761 18.378505 -13.646897 -22.227660 -2.693119 -17.248126 0.883147 4.075292 0.000000 0.000000 0.000000 7.125000 0.000000 0.000000 7.716519 34.168166 2.066586
